<mxfile host="app.diagrams.net" modified="2024-06-05T09:31:13.183Z" agent="Mozilla/5.0 (Windows NT 10.0; Win64; x64) AppleWebKit/537.36 (KHTML, like Gecko) Chrome/125.0.0.0 Safari/537.36" etag="MNaFv73h30xtHNy1KFNv" version="24.0.7" type="device">
  <diagram name="Page-1" id="5f0bae14-7c28-e335-631c-24af17079c00">
    <mxGraphModel dx="1050" dy="522" grid="1" gridSize="10" guides="1" tooltips="1" connect="1" arrows="1" fold="1" page="1" pageScale="1" pageWidth="1100" pageHeight="850" background="none" math="0" shadow="0">
      <root>
        <mxCell id="0" />
        <mxCell id="1" parent="0" />
        <mxCell id="Ahux87OoH2djJbpaurHz-1" value="Eureka Server" style="swimlane;startSize=20;horizontal=1;containerType=tree;newEdgeStyle={&quot;edgeStyle&quot;:&quot;elbowEdgeStyle&quot;,&quot;startArrow&quot;:&quot;none&quot;,&quot;endArrow&quot;:&quot;none&quot;};" vertex="1" parent="1">
          <mxGeometry x="120" y="30" width="800" height="460" as="geometry" />
        </mxCell>
        <mxCell id="Ahux87OoH2djJbpaurHz-2" value="" style="edgeStyle=elbowEdgeStyle;elbow=vertical;sourcePerimeterSpacing=0;targetPerimeterSpacing=0;startArrow=none;endArrow=none;rounded=0;curved=0;" edge="1" parent="Ahux87OoH2djJbpaurHz-1">
          <mxGeometry relative="1" as="geometry">
            <mxPoint x="360" y="120" as="sourcePoint" />
            <mxPoint x="100" y="230" as="targetPoint" />
            <Array as="points">
              <mxPoint x="360" y="150" />
            </Array>
          </mxGeometry>
        </mxCell>
        <mxCell id="Ahux87OoH2djJbpaurHz-3" value="" style="edgeStyle=elbowEdgeStyle;elbow=vertical;sourcePerimeterSpacing=0;targetPerimeterSpacing=0;startArrow=none;endArrow=none;rounded=0;curved=0;entryX=0.5;entryY=0;entryDx=0;entryDy=0;" edge="1" parent="Ahux87OoH2djJbpaurHz-1" target="Ahux87OoH2djJbpaurHz-12">
          <mxGeometry relative="1" as="geometry">
            <mxPoint x="440" y="120" as="sourcePoint" />
            <mxPoint x="740.4000000000001" y="228.01999999999998" as="targetPoint" />
            <Array as="points">
              <mxPoint x="560" y="145" />
            </Array>
          </mxGeometry>
        </mxCell>
        <UserObject label="API - GATEWAY" treeRoot="1" id="Ahux87OoH2djJbpaurHz-4">
          <mxCell style="whiteSpace=wrap;html=1;align=center;treeFolding=1;treeMoving=1;newEdgeStyle={&quot;edgeStyle&quot;:&quot;elbowEdgeStyle&quot;,&quot;startArrow&quot;:&quot;none&quot;,&quot;endArrow&quot;:&quot;none&quot;};" vertex="1" parent="Ahux87OoH2djJbpaurHz-1">
            <mxGeometry x="330" y="60" width="120" height="60" as="geometry" />
          </mxCell>
        </UserObject>
        <mxCell id="Ahux87OoH2djJbpaurHz-5" value="Auth-Service" style="whiteSpace=wrap;html=1;align=center;verticalAlign=middle;treeFolding=1;treeMoving=1;newEdgeStyle={&quot;edgeStyle&quot;:&quot;elbowEdgeStyle&quot;,&quot;startArrow&quot;:&quot;none&quot;,&quot;endArrow&quot;:&quot;none&quot;};" vertex="1" parent="Ahux87OoH2djJbpaurHz-1">
          <mxGeometry x="50" y="230" width="100" height="60" as="geometry" />
        </mxCell>
        <mxCell id="Ahux87OoH2djJbpaurHz-6" value="Commesse" style="whiteSpace=wrap;html=1;align=center;verticalAlign=middle;treeFolding=1;treeMoving=1;newEdgeStyle={&quot;edgeStyle&quot;:&quot;elbowEdgeStyle&quot;,&quot;startArrow&quot;:&quot;none&quot;,&quot;endArrow&quot;:&quot;none&quot;};" vertex="1" parent="Ahux87OoH2djJbpaurHz-1">
          <mxGeometry x="350" y="230" width="100" height="60" as="geometry" />
        </mxCell>
        <mxCell id="Ahux87OoH2djJbpaurHz-7" value="Risorse&amp;nbsp;" style="whiteSpace=wrap;html=1;align=center;verticalAlign=middle;treeFolding=1;treeMoving=1;newEdgeStyle={&quot;edgeStyle&quot;:&quot;elbowEdgeStyle&quot;,&quot;startArrow&quot;:&quot;none&quot;,&quot;endArrow&quot;:&quot;none&quot;};" vertex="1" parent="Ahux87OoH2djJbpaurHz-1">
          <mxGeometry x="200" y="230" width="100" height="60" as="geometry" />
        </mxCell>
        <mxCell id="Ahux87OoH2djJbpaurHz-8" value="" style="edgeStyle=elbowEdgeStyle;elbow=vertical;sourcePerimeterSpacing=0;targetPerimeterSpacing=0;startArrow=none;endArrow=none;rounded=0;curved=0;exitX=0.43;exitY=1.04;exitDx=0;exitDy=0;exitPerimeter=0;entryX=0.5;entryY=0;entryDx=0;entryDy=0;" edge="1" parent="Ahux87OoH2djJbpaurHz-1" source="Ahux87OoH2djJbpaurHz-4" target="Ahux87OoH2djJbpaurHz-7">
          <mxGeometry relative="1" as="geometry">
            <mxPoint x="280" y="210" as="sourcePoint" />
            <mxPoint x="250" y="230" as="targetPoint" />
            <Array as="points">
              <mxPoint x="382" y="170" />
            </Array>
          </mxGeometry>
        </mxCell>
        <mxCell id="Ahux87OoH2djJbpaurHz-9" value="Reports" style="whiteSpace=wrap;html=1;align=center;verticalAlign=middle;treeFolding=1;treeMoving=1;newEdgeStyle={&quot;edgeStyle&quot;:&quot;elbowEdgeStyle&quot;,&quot;startArrow&quot;:&quot;none&quot;,&quot;endArrow&quot;:&quot;none&quot;};" vertex="1" parent="Ahux87OoH2djJbpaurHz-1">
          <mxGeometry x="510" y="230" width="100" height="60" as="geometry" />
        </mxCell>
        <mxCell id="Ahux87OoH2djJbpaurHz-10" value="" style="edgeStyle=elbowEdgeStyle;elbow=vertical;sourcePerimeterSpacing=0;targetPerimeterSpacing=0;startArrow=none;endArrow=none;rounded=0;curved=0;exitX=0.5;exitY=1;exitDx=0;exitDy=0;entryX=0.5;entryY=0;entryDx=0;entryDy=0;" edge="1" parent="Ahux87OoH2djJbpaurHz-1" target="Ahux87OoH2djJbpaurHz-9">
          <mxGeometry relative="1" as="geometry">
            <mxPoint x="420" y="120" as="sourcePoint" />
            <mxPoint x="560" y="220" as="targetPoint" />
            <Array as="points">
              <mxPoint x="430" y="170" />
            </Array>
          </mxGeometry>
        </mxCell>
        <mxCell id="Ahux87OoH2djJbpaurHz-12" value="TimeSheet" style="whiteSpace=wrap;html=1;align=center;verticalAlign=middle;treeFolding=1;treeMoving=1;newEdgeStyle={&quot;edgeStyle&quot;:&quot;elbowEdgeStyle&quot;,&quot;startArrow&quot;:&quot;none&quot;,&quot;endArrow&quot;:&quot;none&quot;};" vertex="1" parent="Ahux87OoH2djJbpaurHz-1">
          <mxGeometry x="650" y="230" width="100" height="60" as="geometry" />
        </mxCell>
        <mxCell id="Ahux87OoH2djJbpaurHz-13" value="" style="edgeStyle=elbowEdgeStyle;elbow=vertical;sourcePerimeterSpacing=0;targetPerimeterSpacing=0;startArrow=none;endArrow=none;rounded=0;curved=0;entryX=0.5;entryY=0;entryDx=0;entryDy=0;" edge="1" parent="Ahux87OoH2djJbpaurHz-1" target="Ahux87OoH2djJbpaurHz-6">
          <mxGeometry relative="1" as="geometry">
            <mxPoint x="400" y="120" as="sourcePoint" />
            <mxPoint x="508" y="288" as="targetPoint" />
            <Array as="points" />
          </mxGeometry>
        </mxCell>
        <mxCell id="Ahux87OoH2djJbpaurHz-14" style="edgeStyle=elbowEdgeStyle;rounded=0;orthogonalLoop=1;jettySize=auto;html=1;startArrow=none;endArrow=none;entryX=0.5;entryY=0;entryDx=0;entryDy=0;" edge="1" parent="Ahux87OoH2djJbpaurHz-1" source="Ahux87OoH2djJbpaurHz-9" target="Ahux87OoH2djJbpaurHz-9">
          <mxGeometry relative="1" as="geometry" />
        </mxCell>
        <mxCell id="Ahux87OoH2djJbpaurHz-15" value="" style="shape=datastore;whiteSpace=wrap;html=1;" vertex="1" parent="Ahux87OoH2djJbpaurHz-1">
          <mxGeometry x="75" y="355" width="50" height="60" as="geometry" />
        </mxCell>
        <mxCell id="Ahux87OoH2djJbpaurHz-16" value="" style="shape=datastore;whiteSpace=wrap;html=1;" vertex="1" parent="Ahux87OoH2djJbpaurHz-1">
          <mxGeometry x="225" y="355" width="50" height="60" as="geometry" />
        </mxCell>
        <mxCell id="Ahux87OoH2djJbpaurHz-17" value="" style="shape=datastore;whiteSpace=wrap;html=1;" vertex="1" parent="Ahux87OoH2djJbpaurHz-1">
          <mxGeometry x="375" y="355" width="50" height="60" as="geometry" />
        </mxCell>
        <mxCell id="Ahux87OoH2djJbpaurHz-18" value="" style="shape=datastore;whiteSpace=wrap;html=1;" vertex="1" parent="Ahux87OoH2djJbpaurHz-1">
          <mxGeometry x="535" y="355" width="50" height="60" as="geometry" />
        </mxCell>
        <mxCell id="Ahux87OoH2djJbpaurHz-36" value="" style="shape=datastore;whiteSpace=wrap;html=1;" vertex="1" parent="Ahux87OoH2djJbpaurHz-1">
          <mxGeometry x="675" y="355" width="50" height="60" as="geometry" />
        </mxCell>
        <mxCell id="Ahux87OoH2djJbpaurHz-43" value="" style="endArrow=classic;html=1;rounded=0;exitX=0.5;exitY=1;exitDx=0;exitDy=0;" edge="1" parent="Ahux87OoH2djJbpaurHz-1" source="Ahux87OoH2djJbpaurHz-5">
          <mxGeometry width="50" height="50" relative="1" as="geometry">
            <mxPoint x="140" y="355" as="sourcePoint" />
            <mxPoint x="100" y="360" as="targetPoint" />
          </mxGeometry>
        </mxCell>
        <mxCell id="Ahux87OoH2djJbpaurHz-46" value="" style="endArrow=classic;html=1;rounded=0;exitX=0.5;exitY=1;exitDx=0;exitDy=0;" edge="1" parent="Ahux87OoH2djJbpaurHz-1">
          <mxGeometry width="50" height="50" relative="1" as="geometry">
            <mxPoint x="249.5" y="290" as="sourcePoint" />
            <mxPoint x="249.5" y="360" as="targetPoint" />
          </mxGeometry>
        </mxCell>
        <mxCell id="Ahux87OoH2djJbpaurHz-47" value="" style="endArrow=classic;html=1;rounded=0;exitX=0.5;exitY=1;exitDx=0;exitDy=0;" edge="1" parent="Ahux87OoH2djJbpaurHz-1">
          <mxGeometry width="50" height="50" relative="1" as="geometry">
            <mxPoint x="399.5" y="290" as="sourcePoint" />
            <mxPoint x="399.5" y="360" as="targetPoint" />
          </mxGeometry>
        </mxCell>
        <mxCell id="Ahux87OoH2djJbpaurHz-48" value="" style="endArrow=classic;html=1;rounded=0;exitX=0.5;exitY=1;exitDx=0;exitDy=0;" edge="1" parent="Ahux87OoH2djJbpaurHz-1">
          <mxGeometry width="50" height="50" relative="1" as="geometry">
            <mxPoint x="559.5" y="290" as="sourcePoint" />
            <mxPoint x="559.5" y="360" as="targetPoint" />
          </mxGeometry>
        </mxCell>
        <mxCell id="Ahux87OoH2djJbpaurHz-49" value="" style="endArrow=classic;html=1;rounded=0;exitX=0.5;exitY=1;exitDx=0;exitDy=0;" edge="1" parent="Ahux87OoH2djJbpaurHz-1">
          <mxGeometry width="50" height="50" relative="1" as="geometry">
            <mxPoint x="699.5" y="290" as="sourcePoint" />
            <mxPoint x="699.5" y="360" as="targetPoint" />
          </mxGeometry>
        </mxCell>
      </root>
    </mxGraphModel>
  </diagram>
</mxfile>
